<svg xmlns="http://www.w3.org/2000/svg" viewBox="0 0 923.98 1066.92"><defs><style>.cls-1{fill:none;stroke:#000;stroke-miterlimit:10;stroke-width:40px;}.cls-2{fill:#00b200;}</style></defs><title>Asset 2</title><g id="Layer_2" data-name="Layer 2"><g id="Layer_1-2" data-name="Layer 1"><polygon class="cls-1" points="461.99 23.09 20 278.27 20 788.64 461.99 1043.82 903.98 788.64 903.98 278.27 461.99 23.09"/><g id="WESiUi"><path d="M466.71,886.44c-10.86-10.73-21.82-21.35-32.54-32.21-6.4-6.49-6.38-14.68,0-21.28,9.05-9.35,18.28-18.51,27.55-27.64,6.55-6.46,14.79-7,20.75-1.61s6.23,13.35.63,20.82c-.52.69-1,1.41-2.72,3.84,10.65-1.37,19.83-2,28.75-3.78q165.32-33.92,225.19-192.1c10.61-28.12,15.56-57.63,16-87.79a80.6,80.6,0,0,1,.38-9.58c1-8.79,6.81-14.12,14.84-13.77s13.85,6.23,13.44,15c-.77,16.4-1.14,33-3.68,49.12-10.74,68.07-40.09,127.11-88.54,176.14Q608.31,841,497.37,854.88c-5.64.71-11.29,1.28-16.93,2-.36,0-.66.56-1,.87,10.3,16.35,10.25,19.61-.44,28.71Z"/><path d="M450.3,184.62c10.86,10.72,21.82,21.35,32.55,32.2,6.37,6.44,6.34,14.67-.08,21.3-9,9.34-18.26,18.53-27.54,27.63-6.53,6.41-14.89,6.91-20.79,1.56S428.32,254,434,246.47c.52-.68,1-1.4,2.64-3.79-10.66,1.35-19.88,1.84-28.8,3.75C285.62,272.61,207.5,346.11,174.58,466.8c-5.22,19.14-5.46,39.65-7.9,59.54-.38,3.16,0,6.41-.38,9.58-.93,8.65-7,14.16-14.87,13.78s-13.73-6.44-13.64-15c.82-80.31,27-151.26,79.8-211.7,49.83-57,112.67-91.5,187-104.86,8.72-1.57,17.62-2.17,26.43-3.23,2.17-.26,4.34-.58,6.81-.91-10.64-17.21-10.59-20.41.11-29.35Z"/><path class="cls-2" d="M585.61,269.34c-9.62,0-15.14-4.92-15.17-13.47,0-9,7.12-16.53,15.64-16.45,10,.09,17.36,6.74,17.25,15.53C603.22,264.09,596.73,269.36,585.61,269.34Z"/><path class="cls-2" d="M636.37,269.86c7.84.11,14.79,7.15,14.75,15s-7.15,15.06-14.79,14.8c-7.08-.24-14.63-8.32-14.52-15.53A14.79,14.79,0,0,1,636.37,269.86Z"/><path class="cls-2" d="M680.22,337.88c-8.06-.15-14.82-7.15-14.55-15.08a15.07,15.07,0,0,1,14.73-14.25c7.94.07,14.81,7.22,14.52,15.11S687.82,338,680.22,337.88Z"/><path class="cls-2" d="M773.52,477.69c0,8-5.72,13.86-13.57,13.88a14.8,14.8,0,0,1-.89-29.58C767.09,461.8,773.55,468.85,773.52,477.69Z"/><path class="cls-2" d="M716.37,354.52a14.38,14.38,0,0,1,14.79,14v.66a14.51,14.51,0,0,1-14.4,14.36c-7.69,0-14.2-6.51-14.48-14.45a14.14,14.14,0,0,1,13.77-14.51Z"/><path class="cls-2" d="M175.68,664c-9.24,0-16.14-6-16.18-14a14.41,14.41,0,0,1,14.36-14.49h.5c7.89.14,14.35,7.13,14.18,15.35C188.4,658.07,182.56,664.05,175.68,664Z"/><path class="cls-2" d="M546,237.13c0,8-6.09,13.85-14.44,14s-14.54-5.57-14.64-13.65a14.54,14.54,0,0,1,29.08-.3Z"/><path class="cls-2" d="M186.39,701.7a13.89,13.89,0,0,1,13.51-14.29h.65c8.23,0,14.34,6,14.34,14.08a14.25,14.25,0,1,1-28.5.22Z"/><path class="cls-2" d="M237.46,732.8a14.34,14.34,0,1,1-14.66,14v-.09a14.12,14.12,0,0,1,14.33-13.92Z"/><path class="cls-2" d="M157.93,608c-8.42,0-14.5-6.12-14.56-14.72,0-8,6.12-13.9,14.54-13.78a13.86,13.86,0,0,1,13.92,13.78v.08A14.13,14.13,0,0,1,158.24,608Z"/><path class="cls-2" d="M729.44,422.1a13.87,13.87,0,0,1,13.83-13.92H744a14.28,14.28,0,0,1,13.86,14.1c.06,7.61-5.92,13.78-13.17,13.57C735.1,435.6,729.34,430.39,729.44,422.1Z"/><path class="cls-2" d="M372.22,834.19A14.16,14.16,0,0,1,386,819.63h.26a14,14,0,0,1,14,13.82c.12,8.09-6.42,14.42-14.88,14.4C377.84,847.8,372.22,842,372.22,834.19Z"/><path class="cls-2" d="M344.89,814.51c0,8.29-6.34,13.69-16.1,13.76-6.32,0-11.78-6.14-11.83-13.38a14.4,14.4,0,0,1,14.26-14.42,13.85,13.85,0,0,1,13.67,14Z"/><path class="cls-2" d="M294.11,787.42c0,7.22-5.57,12.41-13.31,12.41a14.12,14.12,0,0,1-14.28-14v-.23c0-7.61,5.07-12.68,12.85-12.78a14.54,14.54,0,0,1,14.74,14.32Z"/></g><g id="a1Gry8"><path d="M498.77,356.25c25.39-2.88,51.33.52,75.68,8.31,23.55,7.53,46.73,20,60.31,40.63,7.57,11.52,11.8,26,8.27,39.27-3.24,12.26-12.45,22-17.32,33.72-5.25,12.62-5.17,26.72-5,40.38q.51,42.83,1,85.65c.31,26.5-15.32,31.45-36,44l-67.9,41.22c-5.88,3.57-11.82,7.16-18.36,9.26-8.69,2.78-18,2.77-27.12,2.74l-157.48-.6c-4.44,0-9.4-.23-12.52-3.41s-3.26-8-3.25-12.36q0-55.77.05-111.54c0-6.65,0-13.47-2.35-19.71-2.75-7.4-8.46-13.26-12.65-20a54.45,54.45,0,0,1-6.07-43.39c8.54-29.62,39.4-45.68,66.13-61,48.58-27.89,94.71-64.71,150.17-72.64C495.82,356.6,497.3,356.41,498.77,356.25ZM322.07,677.19H483c0-42,.28-83.4-.24-124.73-.1-8,2.27-13,8.15-18,19.56-16.61,20.51-39.07,1.72-56.41a101.43,101.43,0,0,0-26.72-17.37c-26.86-12.13-55.29-14.89-84.46-11.46-25.14,3-48.62,10.29-67.81,27.41-19.71,17.57-19.45,40.87.64,57.84,6.13,5.18,8,10.55,7.92,18.16C321.92,594,322.07,635.28,322.07,677.19Zm184-8.53c3.28-1.79,5.39-2.83,7.39-4,26-15.59,51.88-31.39,78.07-46.66,5.38-3.13,6.7-6.69,6.67-12.48-.22-40.76,0-81.53-.27-122.3-.06-7.71,2.12-12.91,8.21-18,19.14-16,19.88-38.57,1.89-55.89a86.44,86.44,0,0,0-20.88-14.74c-33.68-16.84-69.24-18.7-105.73-11.94-20.94,3.88-38.9,14.29-56.69,25.19C416.37,413,408,418,399.59,423.1c8,2,15.26,2.11,22.51,2.85,31,3.19,60.15,11.72,84.09,32.91,28.81,25.5,30.23,61,4.3,89.21a18.16,18.16,0,0,0-4.23,11.17c-.34,30.34-.19,60.69-.19,91Z"/></g></g></g></svg>