<svg width="69" height="69" viewBox="0 0 69 69" fill="none" xmlns="http://www.w3.org/2000/svg">
<circle cx="34.2116" cy="34.7975" r="33.9352" fill="#E57175"/>
<path d="M14.5253 37.6593C15.081 41.8312 16.9618 45.8604 20.1677 49.0663C27.9238 56.8224 40.499 56.8224 48.2552 49.0663C56.0113 41.3101 56.0113 28.7349 48.2552 20.9788C40.499 13.2227 27.9238 13.2227 20.1677 20.9788C18.7002 22.4462 17.5104 24.0862 16.5983 25.8334" stroke="black" stroke-width="2" stroke-miterlimit="10"/>
<path d="M34.222 42.3486C34.3391 42.3486 34.4705 42.3176 34.6105 42.2329C37.2076 40.6742 39.1361 39.1268 40.6818 37.3621C41.6589 36.2439 42.3046 35.1398 42.6589 33.9906C43.4674 31.3731 42.1189 28.6963 39.5904 27.8972C37.5162 27.2421 35.2219 28.236 34.2105 30.2154C33.5534 28.9222 32.0192 27.5583 29.7164 27.7221C27.9936 27.8492 26.3822 29.1424 25.7993 30.862C25.3193 32.2738 25.4793 33.7167 26.2907 35.2754C26.9022 36.45 27.7993 37.5625 29.1135 38.7795C30.4192 39.9909 31.9249 41.1006 33.7134 42.1736C33.8277 42.2441 34.0048 42.3486 34.222 42.3486ZM38.3133 28.4986C38.659 28.4986 39.0076 28.5494 39.3447 28.6567C41.4503 29.3203 42.5675 31.5623 41.8875 33.7591C41.5675 34.801 40.9732 35.809 40.0704 36.8425C38.5876 38.5395 36.7219 40.0361 34.2048 41.5467C34.202 41.5382 34.1763 41.5213 34.1534 41.51C32.3906 40.4483 30.9306 39.3725 29.6649 38.2007C28.4021 37.0317 27.5821 36.018 27.005 34.9111C26.2879 33.536 26.1479 32.3303 26.5593 31.1161C27.0364 29.7128 28.3878 28.6172 29.7735 28.5156C31.7535 28.3631 33.0534 29.6027 33.5506 30.7067C33.6077 30.8338 33.662 30.9608 33.7248 31.1105L33.8363 31.3703C33.8991 31.5171 34.0448 31.6131 34.2077 31.6131C34.3705 31.6131 34.5162 31.5171 34.5791 31.3703L34.6991 31.0851C34.7648 30.9298 34.8191 30.7942 34.8819 30.6615C35.5248 29.3288 36.9105 28.4986 38.3133 28.4986Z" fill="black" stroke="black"/>
<path d="M10.4427 42.0217L14.4559 36.4062L20.0715 40.4193" stroke="black" stroke-width="2" stroke-miterlimit="10"/>
</svg>
