<svg width="69" height="69" viewBox="0 0 69 69" fill="none" xmlns="http://www.w3.org/2000/svg">
<circle cx="34.2116" cy="34.8459" r="33.9352" fill="#B1D6B4"/>
<path d="M45.8847 22.7777C43.271 19.2767 42.0144 16.8083 41.7128 16.0118C41.2896 23.0074 34.7678 26.4742 34.6144 34.7289C34.4917 41.3327 41.1061 45.5642 43.3876 46.8161C54.3948 40.9871 52.3088 31.3827 45.8847 22.7777Z" fill="#B1D6B4"/>
<path d="M41.7128 16.0118L42.648 15.6577C42.481 15.2167 42.0287 14.9523 41.5626 15.0231C41.0964 15.0939 40.7431 15.4808 40.7146 15.9514L41.7128 16.0118ZM45.8847 22.7777L46.686 22.1795L45.8847 22.7777ZM43.3876 46.8161L42.9065 47.6928L43.3791 47.9521L43.8556 47.6998L43.3876 46.8161ZM34.6144 34.7289L35.6142 34.7475L34.6144 34.7289ZM40.7776 16.3659C41.1249 17.2832 42.4404 19.8358 45.0833 23.3759L46.686 22.1795C44.1015 18.7176 42.9038 16.3335 42.648 15.6577L40.7776 16.3659ZM45.0833 23.3759C48.2433 27.6087 50.2204 31.9436 50.173 35.8257C50.1269 39.5968 48.1649 43.1546 42.9196 45.9324L43.8556 47.6998C49.6175 44.6486 52.1161 40.4897 52.1728 35.8501C52.2281 31.3216 49.9501 26.5517 46.686 22.1795L45.0833 23.3759ZM43.8686 45.9394C42.7744 45.339 40.6504 44.0271 38.827 42.0934C37.0027 40.1587 35.5596 37.6906 35.6142 34.7475L33.6146 34.7103C33.5466 38.371 35.3493 41.3205 37.3719 43.4655C39.3954 45.6115 41.7193 47.0413 42.9065 47.6928L43.8686 45.9394ZM35.6142 34.7475C35.6856 30.9082 37.2232 28.1763 38.9146 25.4214C40.5829 22.7042 42.4814 19.867 42.7109 16.0722L40.7146 15.9514C40.521 19.1521 38.947 21.5462 37.2102 24.3749C35.4966 27.166 33.6966 30.2948 33.6146 34.7103L35.6142 34.7475Z" fill="black"/>
<path d="M42.8677 28.1579C43.6414 34.4643 44.4873 48.2384 41.6813 52.8829" stroke="black" stroke-width="2" stroke-miterlimit="10"/>
<path d="M19.1401 25.6711C14.0667 25.0829 10.9601 24.1699 10.041 23.787C15.6475 29.7611 15.0961 36.3786 21.9893 43.134C27.5039 48.5383 34.6729 48.0206 37.568 47.0861C40.0496 35.1838 31.61 27.1169 19.1401 25.6711Z" fill="#B1D6B4"/>
<path d="M10.041 23.787L10.4256 22.8639C9.99038 22.6826 9.4876 22.8299 9.21906 23.2174C8.95051 23.605 8.98917 24.1275 9.31183 24.4713L10.041 23.787ZM19.1401 25.6711L19.2553 24.6778L19.1401 25.6711ZM37.568 47.0861L37.8752 48.0378L38.4283 47.8593L38.547 47.2903L37.568 47.0861ZM21.9893 43.134L21.2894 43.8482L21.9893 43.134ZM9.65642 24.7101C10.6948 25.1427 13.903 26.0706 19.0249 26.6645L19.2553 24.6778C14.2304 24.0952 11.2255 23.1972 10.4256 22.8639L9.65642 24.7101ZM19.0249 26.6645C25.0873 27.3674 30.0663 29.6685 33.2217 33.131C36.3515 36.5653 37.7683 41.2263 36.5891 46.882L38.547 47.2903C39.8493 41.0437 38.2871 35.72 34.7 31.7839C31.1386 27.8759 25.6628 25.4207 19.2553 24.6778L19.0249 26.6645ZM37.2609 46.1345C34.5903 46.9964 27.8537 47.481 22.6892 42.4198L21.2894 43.8482C27.1541 49.5957 34.7555 49.0447 37.8752 48.0378L37.2609 46.1345ZM22.6892 42.4198C19.3836 39.1803 17.8601 35.9821 16.4483 32.7656C15.039 29.5549 13.7122 26.2376 10.7702 23.1027L9.31183 24.4713C11.9763 27.3105 13.1771 30.289 14.617 33.5695C16.0543 36.8441 17.7017 40.3324 21.2894 43.8482L22.6892 42.4198Z" fill="black"/>
<path d="M21.5212 32.8277C27.5025 37.2314 39.8889 47.5671 41.5847 53.6798" stroke="black" stroke-width="2" stroke-miterlimit="10"/>
</svg>
