<svg width="69" height="69" viewBox="0 0 69 69" fill="none" xmlns="http://www.w3.org/2000/svg">
<circle cx="34.3415" cy="34.8459" r="33.9352" fill="#EABB5E"/>
<path d="M44.3247 23.4571L39.1481 26.7603C37.8992 24.3281 36.3051 23.112 34.3659 23.112C33.4128 23.112 32.624 23.4078 31.9995 23.9994C31.375 24.5911 31.0628 25.347 31.0628 26.2673C31.0628 27.3519 31.5722 28.3215 32.5911 29.176C33.61 29.9977 34.8261 30.7372 36.2394 31.3945C37.6855 32.0519 39.1317 32.775 40.5778 33.5638C42.024 34.3526 43.2565 35.4372 44.2754 36.8176C45.2942 38.198 45.8037 39.8414 45.8037 41.7477C45.8037 44.5742 45.0806 46.8914 43.6345 48.699C42.1883 50.5067 40.2163 51.6735 37.7184 52.1994V56.5378H31.7037V52.1008C29.403 51.542 27.4639 50.4246 25.8862 48.7483C24.3415 47.0393 23.339 45.0672 22.8789 42.8323L28.0555 39.5784C29.3702 44.2456 31.6544 46.5791 34.9083 46.5791C37.8992 46.5791 39.3946 45.0837 39.3946 42.0928C39.3946 41.0739 38.9016 40.17 37.9156 39.3812C36.9296 38.5924 35.7135 37.8858 34.2673 37.2613C32.8541 36.6368 31.4408 35.9302 30.0275 35.1414C28.6142 34.3526 27.4146 33.2351 26.4285 31.7889C25.4425 30.3428 24.9495 28.6008 24.9495 26.5631C24.9495 24.3939 25.5576 22.4876 26.7737 20.8442C28.0226 19.2009 29.666 18.0998 31.7037 17.5411V13.1533H37.7184V17.6397C40.7093 18.4942 42.9114 20.4334 44.3247 23.4571Z" stroke="black" stroke-width="2" stroke-miterlimit="10" stroke-linejoin="round"/>
</svg>
