<svg xmlns="http://www.w3.org/2000/svg" viewBox="0 0 923.98 1066.92"><defs><style>.cls-1{fill:none;stroke:#000;stroke-miterlimit:10;stroke-width:40px;}.cls-2{fill:#00b200;}</style></defs><title>Asset 1</title><g id="Layer_2" data-name="Layer 2"><g id="Layer_1-2" data-name="Layer 1"><polygon class="cls-1" points="461.99 23.09 20 278.28 20 788.64 461.99 1043.83 903.98 788.64 903.98 278.28 461.99 23.09"/><g id="zIQuhI"><path d="M397.5,587.44c2.24,1.16,4.48,2.54,6.88,3.51,49,19.75,79.49,69.53,75.87,122.2-3.67,53.54-42.43,101-98.79,111.32-73.44,13.43-132.71-37-143.61-99.57-9.89-56.72,23.27-116.13,79.2-135.63,19.4-6.76,39.38-10,59.89-5.52,5.67,1.24,9.3.22,12.47-5.24q30.39-52.28,61.48-104.14c3.09-5.17,2.68-8.25-1.59-12.32Q418.87,433,388.93,403.4c-3.87-3.82-6.92-4-10.93-.59-20,17.21-43.48,22.65-68.8,17.77-29.08-5.6-50.16-23-60.48-50.58-15.93-42.67,1.31-84,41.76-104.52,42.17-21.38,97.79,2.56,112.35,47.72,8,24.79,5.16,47.92-7.66,70-2.78,4.79-2,7.46,1.58,11,20.51,20.3,40.7,40.93,61.45,61a18.25,18.25,0,0,0,12.74,4.46c25.28-2.22,50.5-5.19,75.72-8,11.68-1.31,23.31-3.2,35-4.17,6.12-.51,7-3.42,7.33-8.79,2.57-37.36,20.09-65.15,55.06-79.64,30.64-12.68,60.61-9.09,87.15,11.05,26.73,20.29,38.08,48,34.51,81.58-4.8,45.32-45.12,79.89-92.22,78.05-36.81-1.43-67.79-25.59-80.72-63.82-2.06-6.08-4.83-7.21-10.3-6.58-37.16,4.32-74.34,8.44-111.48,12.88-2.56.31-5.86,2.08-7.15,4.19-22.08,35.94-43.9,72-65.75,108.12A11.27,11.27,0,0,0,397.5,587.44ZM361.7,813.62c60.68-1.39,108.44-52.71,105.92-112.81-2.61-62.13-53.45-109-114.56-106-59.66,2.84-107,54.71-104.27,114.31C251.49,768.91,302.73,816.35,361.7,813.62ZM677.6,516.89c41.43.23,75.95-34.26,76.09-76s-34.22-75.94-76-75.77a76.36,76.36,0,0,0-76,75.26C601.26,481.4,636.21,516.66,677.6,516.89ZM325.2,407c36.14,1.62,67.62-30.22,67.15-66.93C391.86,302.17,363,273,325.16,273S258.45,302.31,258,340.1C257.57,378.26,290.64,408.78,325.2,407Z"/><path d="M358,832.93a126.32,126.32,0,0,1-72.62-22.58A130.92,130.92,0,0,1,231.63,726C221,664.93,256.8,603.59,315,583.31c23.22-8.1,43.87-10,63.32-5.73,3.5.76,4.14.4,5.67-2.25q30.39-52.29,61.5-104.2a6.37,6.37,0,0,0,1.13-2.54h0a6.72,6.72,0,0,0-1.65-2q-30.49-29.12-60.46-58.73a7.68,7.68,0,0,0-1.36-1.12c-.09.12-.46.36-1,.84-21,18.14-45.85,24.56-74.11,19.17-31.56-6.07-54.09-24.95-65.17-54.57C226,327.12,244,282,287.62,259.84c21.5-10.89,47.38-11.46,71.17-1.57,24.21,10.1,42.47,29.41,50.07,53,8.37,26,5.6,51.31-8.24,75.14a6.63,6.63,0,0,0-.79,1.81h0c.05,0,.35.5,1.36,1.52,7.45,7.37,14.85,14.78,22.28,22.21,13,13,25.91,26,39.12,38.7,1.67,1.62,6,2.88,7.79,2.72,21.1-1.85,42.15-4.23,63.2-6.61l12.36-1.4c4.5-.5,9-1.08,13.48-1.68,7.23-.95,14.48-1.9,21.74-2.5a6.18,6.18,0,0,0,1.43-.24c-.17-.07,0-.86.12-2.69,2.84-41.42,22.68-70,59-85,32.92-13.65,65.19-9.51,93.38,11.84,28.37,21.56,40.81,50.92,37,87.28C766.85,501.2,724,538,673.25,536c-39.63-1.54-72.77-27.65-86.46-68.12a6.69,6.69,0,0,0-1.14-2.42,2.12,2.12,0,0,0-.67,0,14.74,14.74,0,0,0-1.77.13l-42.4,4.86c-23,2.63-46,5.25-69.07,8a5.2,5.2,0,0,0-2.54,1.3q-28.69,46.69-57.08,93.8l-6.64,11c.4.2.82.38,1.26.56,51.6,20.79,83.68,72.44,79.81,128.5-4,58.47-46.77,106.63-104,117.09A136.15,136.15,0,0,1,358,832.93Zm-95.18-63.09A117.75,117.75,0,0,0,292.61,800c25.17,17.54,56.34,24,87.7,18.26,51.5-9.42,90-52.81,93.65-105.52,3.23-47-21.44-90.47-62.18-111.46a115.82,115.82,0,0,1,24.33,17.06c23.05,21.07,36.47,50.26,37.83,82.21a115.78,115.78,0,0,1-194.09,88.9A120,120,0,0,1,262.82,769.84ZM358.45,601c-1.7,0-3.41,0-5.11.11-55.77,2.66-100.76,52-98.24,107.73a103.19,103.19,0,0,0,33.34,71.38,100.92,100.92,0,0,0,73,27.15l.15,0A102.37,102.37,0,0,0,461.3,701.07c-1.18-28.55-13.18-54.64-33.73-73.42A101.77,101.77,0,0,0,358.45,601Zm-1-13c-11.84,0-24.38,2.4-38.35,7.27-41.5,14.47-70.38,52.19-75.81,94.6,7.14-54.15,53.46-98.73,109.45-101.39a113.72,113.72,0,0,1,16.83.39A85.17,85.17,0,0,0,357.46,588Zm23.79,2.57a115.7,115.7,0,0,1,19.32,5.64c-1.4-.66-2.79-1.4-4.14-2.14l-6-3.17.86-4.5A14.56,14.56,0,0,1,381.25,590.54Zm10.12-4.26,6.14,1.16-5.43-1.9A10,10,0,0,1,391.37,586.28Zm221.3-95.62c14.76,19.77,36.47,31.78,61.08,32.73,42.94,2.14,81.23-30.09,85.7-72.4,3.36-31.66-7.43-57.19-32.05-75.88s-52-22.22-80.9-10.24c-26.06,10.78-42.34,29.76-48.59,56.52,9-35.71,41.49-62.43,79.79-62.59H678a82.27,82.27,0,0,1,82,82.11,82.86,82.86,0,0,1-82.45,82.3c-21.54-.11-42.81-9.27-58.36-25.11A87.9,87.9,0,0,1,612.67,490.66Zm65,19.91H678a68.6,68.6,0,0,0,48.49-20.22,69.73,69.73,0,0,0,20.9-49.49A69.58,69.58,0,0,0,678,371.43h-.3c-37.92.16-69.19,31.12-69.66,69-.22,18,6.94,35.35,20.14,48.81A70.49,70.49,0,0,0,677.62,510.57Zm-219.92-48a13,13,0,0,1,.67,10.66,1.22,1.22,0,0,1,.12-.19c2.44-4,7.33-6.42,11.1-7.07A25.51,25.51,0,0,1,457.7,462.61Zm128.81-9.68c6,.55,9.83,4,12.14,10.63a79.41,79.41,0,0,1-3.2-23.27c0-2.14.14-4.27.32-6.36-.18,1.7-.35,3.43-.47,5.18C595.05,443,594.53,450.35,586.51,452.93Zm-262.26-189a68,68,0,0,0-30.9,7.24c-38.23,19.36-53.4,57.3-38.69,96.67,9.42,25.28,28.7,41.39,55.72,46.58,24.08,4.68,45.45-.84,63.49-16.35,3.92-3.34,9.7-6,16.26-1.76-2.79-3.66-4.66-8.87-.44-16.19,12.14-20.9,14.46-42.14,7.13-64.94-6.46-20.05-22.09-36.53-42.89-45.2A77.33,77.33,0,0,0,324.25,263.88Zm-1.9,149.5c-17.3,0-34.6-7.19-48-20A73.26,73.26,0,0,1,251.69,340c.5-41.17,32.73-73.4,73.39-73.4h.08c41.36.05,73,31.58,73.51,73.35a73.38,73.38,0,0,1-22.58,53.27c-14,13.52-32.84,20.71-50.86,20.07Q323.79,413.38,322.35,413.38Zm2.73-134.12c-34.22,0-60.33,26.17-60.75,60.92a60.49,60.49,0,0,0,18.8,44.06c11.7,11.23,27,17.11,41.76,16.45l.29,0,.3,0c15.25.67,30.3-5.35,41.83-16.53a60.75,60.75,0,0,0,18.73-44c-.45-34.67-26.63-60.84-60.88-60.89Z"/><path class="cls-2" d="M325.2,407c-34.56,1.79-67.63-28.73-67.19-66.89.44-37.79,29.43-67.19,67.15-67.15s66.7,29.22,67.19,67.11C392.82,376.77,361.34,408.61,325.2,407Z"/><path d="M322.35,413.38c-17.3,0-34.6-7.19-48-20A73.26,73.26,0,0,1,251.69,340c.5-41.17,32.73-73.4,73.39-73.4h.08c41.36.05,73,31.58,73.51,73.35a73.38,73.38,0,0,1-22.58,53.27c-14,13.52-32.84,20.71-50.86,20.07Q323.79,413.38,322.35,413.38Zm2.73-134.12c-34.22,0-60.33,26.17-60.75,60.92a60.49,60.49,0,0,0,18.8,44.06c11.7,11.23,27,17.11,41.76,16.45l.29,0,.3,0c15.25.67,30.3-5.35,41.83-16.53a60.75,60.75,0,0,0,18.73-44c-.45-34.67-26.63-60.84-60.88-60.89Z"/></g></g></g></svg>